<?xml version="1.0" encoding="UTF-8"?>
<svg id="Layer_1" xmlns="http://www.w3.org/2000/svg" version="1.1" viewBox="0 0 1024.89 509.39">
  <!-- Generator: Adobe Illustrator 29.1.0, SVG Export Plug-In . SVG Version: 2.1.0 Build 142)  -->
  <g>
    <g>
      <path d="M863.44,117.84c-70.21,0-127.32,57.11-127.32,127.31v227.91h42.8v-132.81c22.49,20.02,52.1,32.21,84.52,32.21,70.2,0,127.31-57.12,127.31-127.32s-57.11-127.31-127.31-127.31ZM863.44,329.67c-46.62,0-84.52-37.91-84.52-84.52s37.9-84.52,84.52-84.52,84.51,37.93,84.51,84.52-37.9,84.52-84.51,84.52Z"/>
      <path d="M580.07,117.84c-70.19,0-127.31,57.11-127.31,127.31s57.12,127.32,127.31,127.32c32.43,0,62.03-12.2,84.53-32.21v32.21h42.79v-127.32c0-70.2-57.11-127.31-127.33-127.31ZM580.07,329.68c-46.6,0-84.51-37.91-84.51-84.53s37.91-84.52,84.51-84.52,84.53,37.92,84.53,84.52-37.91,84.53-84.53,84.53Z"/>
      <path d="M435.05,218.01c-12.37-57.48-63.57-100.69-124.7-100.69-70.34,0-127.55,57.22-127.55,127.56,0,9.83,1.15,19.4,3.27,28.61l-125.07,51.08V35.62H18.22v304.59c0,10.74,5.31,20.74,14.22,26.76,8.89,6.01,20.15,7.19,30.2,3.14l139.9-57.15c22.65,35.71,62.48,59.48,107.8,59.48,58.38,0,107.63-39.48,122.72-93.12h-45.62c-13.19,29.49-42.7,50.07-77.1,50.07-27.31,0-51.53-13.01-66.97-33.1l191.67-78.28ZM226.79,256.84c-.56-3.92-.95-7.89-.95-11.96,0-46.68,37.83-84.51,84.51-84.51,27.97,0,52.68,13.62,68.05,34.55l-151.61,61.92Z"/>
    </g>
    <g>
      <polygon points="24.98 453.16 42.37 453.16 42.37 447.43 24.98 447.43 24.98 433.91 51.46 433.91 51.46 427.98 18.22 427.98 18.22 473.06 51.71 473.06 51.71 467.13 24.98 467.13 24.98 453.16"/>
      <polygon points="78.44 466.36 63.17 427.98 55.9 427.98 74.32 473.06 82.24 473.06 100.91 427.98 93.96 427.98 78.44 466.36"/>
      <polygon points="113.6 453.16 130.99 453.16 130.99 447.43 113.6 447.43 113.6 433.91 140.07 433.91 140.07 427.98 106.84 427.98 106.84 473.06 140.33 473.06 140.33 467.13 113.6 467.13 113.6 453.16"/>
      <polygon points="180.32 461.47 155.14 427.98 148.57 427.98 148.57 473.06 155.01 473.06 155.01 438.54 180.78 473.06 186.7 473.06 186.7 427.98 180.32 427.98 180.32 461.47"/>
      <polygon points="193.72 433.96 209.56 433.96 209.56 473.06 216.32 473.06 216.32 433.96 232.17 433.96 232.17 427.98 193.72 427.98 193.72 433.96"/>
      <polygon points="250.39 433.96 266.23 433.96 266.23 473.06 273 473.06 273 433.96 288.84 433.96 288.84 427.98 250.39 427.98 250.39 433.96"/>
      <polygon points="302.56 453.16 319.95 453.16 319.95 447.43 302.56 447.43 302.56 433.91 329.03 433.91 329.03 427.98 295.79 427.98 295.79 473.06 329.29 473.06 329.29 467.13 302.56 467.13 302.56 453.16"/>
      <path d="M344.42,438.38c1.5-1.52,3.27-2.71,5.31-3.57,2.04-.86,4.26-1.29,6.66-1.29,2.62,0,5.13.53,7.53,1.58,2.4,1.05,4.44,2.59,6.12,4.61l4.51-4.64c-1.42-1.63-3.08-3.02-4.99-4.18-1.91-1.16-4-2.05-6.25-2.67-2.25-.62-4.56-.94-6.92-.94-3.31,0-6.4.59-9.27,1.77-2.88,1.18-5.4,2.83-7.57,4.96-2.17,2.13-3.85,4.6-5.02,7.41-1.18,2.81-1.77,5.85-1.77,9.11s.59,6.3,1.77,9.11c1.18,2.82,2.85,5.28,5.02,7.41,2.17,2.12,4.68,3.78,7.53,4.95,2.86,1.18,5.96,1.78,9.3,1.78,2.27,0,4.52-.32,6.73-.93,2.21-.62,4.27-1.53,6.18-2.71,1.91-1.18,3.62-2.56,5.12-4.15l-4.45-4.51c-1.63,1.94-3.62,3.42-5.96,4.48-2.34,1.05-4.82,1.58-7.44,1.58-2.4,0-4.63-.43-6.7-1.29-2.06-.86-3.86-2.07-5.41-3.61-1.55-1.54-2.74-3.35-3.57-5.41-.84-2.06-1.26-4.29-1.26-6.7s.42-4.7,1.26-6.76c.84-2.07,2.01-3.86,3.51-5.38Z"/>
      <polygon points="413.07 447.3 389.11 447.3 389.11 427.98 382.35 427.98 382.35 473.06 389.11 473.06 389.11 453.42 413.07 453.42 413.07 473.06 419.83 473.06 419.83 427.98 413.07 427.98 413.07 447.3"/>
      <polygon points="462.08 461.47 436.9 427.98 430.33 427.98 430.33 473.06 436.77 473.06 436.77 438.54 462.53 473.06 468.46 473.06 468.46 427.98 462.08 427.98 462.08 461.47"/>
      <path d="M517.15,434c-2.15-2.13-4.65-3.77-7.5-4.96-2.86-1.18-5.91-1.77-9.18-1.77s-6.31.59-9.14,1.77c-2.83,1.18-5.34,2.83-7.5,4.96-2.17,2.13-3.84,4.6-5.02,7.41-1.18,2.81-1.77,5.85-1.77,9.11s.59,6.3,1.77,9.11c1.18,2.82,2.86,5.28,5.02,7.41,2.17,2.12,4.67,3.78,7.5,4.95,2.83,1.18,5.88,1.78,9.14,1.78s6.32-.59,9.18-1.78c2.86-1.18,5.36-2.83,7.5-4.95,2.15-2.13,3.82-4.59,5.02-7.41,1.2-2.81,1.81-5.85,1.81-9.11s-.6-6.3-1.81-9.11c-1.2-2.81-2.88-5.28-5.02-7.41ZM515.79,457.25c-.86,2.09-2.04,3.89-3.54,5.42-1.5,1.52-3.25,2.71-5.25,3.58-2,.86-4.16,1.29-6.47,1.29s-4.55-.43-6.57-1.29c-2.02-.86-3.78-2.05-5.28-3.58-1.5-1.53-2.67-3.33-3.51-5.42-.84-2.08-1.25-4.34-1.25-6.79s.42-4.64,1.25-6.7c.84-2.07,2.01-3.86,3.51-5.38,1.5-1.52,3.27-2.71,5.28-3.57,2.01-.86,4.21-1.29,6.57-1.29s4.48.43,6.47,1.29c1.99.86,3.75,2.05,5.25,3.57,1.5,1.53,2.68,3.31,3.54,5.38.85,2.06,1.29,4.31,1.29,6.76s-.43,4.64-1.29,6.73Z"/>
      <polygon points="539.17 427.98 532.41 427.98 532.41 473.06 565.12 473.06 565.12 467.07 539.17 467.07 539.17 427.98"/>
      <path d="M607.63,434c-2.15-2.13-4.65-3.77-7.5-4.96-2.85-1.18-5.91-1.77-9.17-1.77s-6.31.59-9.15,1.77c-2.83,1.18-5.34,2.83-7.51,4.96-2.17,2.13-3.84,4.6-5.02,7.41-1.18,2.81-1.77,5.85-1.77,9.11s.59,6.3,1.77,9.11c1.18,2.82,2.86,5.28,5.02,7.41,2.17,2.12,4.67,3.78,7.51,4.95,2.83,1.18,5.88,1.78,9.15,1.78s6.32-.59,9.17-1.78c2.86-1.18,5.36-2.83,7.5-4.95,2.15-2.13,3.82-4.59,5.02-7.41,1.2-2.81,1.8-5.85,1.8-9.11s-.6-6.3-1.8-9.11c-1.2-2.81-2.88-5.28-5.02-7.41ZM606.28,457.25c-.86,2.09-2.04,3.89-3.54,5.42-1.5,1.52-3.25,2.71-5.25,3.58-1.99.86-4.15,1.29-6.47,1.29s-4.55-.43-6.57-1.29c-2.02-.86-3.78-2.05-5.28-3.58-1.5-1.53-2.67-3.33-3.51-5.42-.84-2.08-1.26-4.34-1.26-6.79s.42-4.64,1.26-6.7c.83-2.07,2-3.86,3.51-5.38,1.5-1.52,3.26-2.71,5.28-3.57,2.01-.86,4.21-1.29,6.57-1.29s4.48.43,6.47,1.29c1.99.86,3.75,2.05,5.25,3.57,1.5,1.53,2.68,3.31,3.54,5.38.86,2.06,1.29,4.31,1.29,6.76s-.43,4.64-1.29,6.73Z"/>
      <path d="M644.6,454.7h15.01c-.3,2.45-1.14,4.65-2.51,6.6-1.37,1.95-3.15,3.49-5.31,4.61-2.17,1.11-4.58,1.67-7.24,1.67-2.36,0-4.55-.42-6.57-1.29-2.02-.86-3.79-2.06-5.32-3.61-1.52-1.54-2.7-3.36-3.54-5.44-.84-2.08-1.26-4.32-1.26-6.73s.41-4.7,1.26-6.76c.83-2.07,2-3.86,3.51-5.38,1.5-1.52,3.26-2.71,5.25-3.57,2-.86,4.18-1.29,6.54-1.29,2.62,0,5.12.53,7.5,1.58,2.38,1.05,4.39,2.55,6.02,4.48l4.63-4.51c-2.19-2.44-4.87-4.35-8.05-5.73-3.18-1.38-6.55-2.06-10.11-2.06-3.31,0-6.38.6-9.21,1.8-2.83,1.21-5.32,2.86-7.47,4.99-2.15,2.12-3.81,4.59-4.99,7.41-1.18,2.81-1.77,5.83-1.77,9.05s.6,6.24,1.8,9.05c1.2,2.81,2.88,5.28,5.02,7.4,2.15,2.13,4.65,3.8,7.5,5,2.85,1.2,5.94,1.8,9.24,1.8,3.13,0,6.05-.57,8.76-1.71,2.71-1.14,5.06-2.74,7.05-4.8,2-2.06,3.56-4.46,4.67-7.21,1.11-2.75,1.67-5.73,1.67-8.95v-2.31h-22.09v5.92Z"/>
      <polygon points="701.79 427.98 687.94 449.17 674.1 427.98 666.24 427.98 684.4 455.16 684.4 473.06 691.16 473.06 691.16 455.28 709.32 427.98 701.79 427.98"/>
    </g>
  </g>
  <path d="M807.49,473.29c-2.66,0-5.09-.67-7.29-2-2.2-1.33-3.94-3.17-5.22-5.51-1.28-2.34-1.92-4.9-1.92-7.66s.64-5.38,1.92-7.7c1.28-2.32,3.02-4.14,5.22-5.48,2.19-1.33,4.62-2,7.29-2s5.17.67,7.36,2c2.19,1.33,3.92,3.16,5.18,5.48,1.26,2.32,1.89,4.88,1.89,7.7s-.64,5.32-1.92,7.66c-1.28,2.34-3.01,4.18-5.18,5.51s-4.61,2-7.33,2ZM807.49,470.18c2.22,0,4.18-.51,5.88-1.52,1.7-1.01,3.02-2.45,3.96-4.33.94-1.87,1.41-3.95,1.41-6.22s-.47-4.46-1.41-6.29c-.94-1.82-2.26-3.24-3.96-4.25-1.7-1.01-3.69-1.52-5.96-1.52s-4.1.51-5.77,1.52c-1.68,1.01-2.99,2.44-3.92,4.29-.94,1.85-1.41,3.93-1.41,6.25s.47,4.39,1.41,6.22c.94,1.83,2.26,3.26,3.96,4.29s3.64,1.55,5.81,1.55ZM802.53,465v-13.91h5.77c1.38,0,2.47.38,3.26,1.15.79.77,1.18,1.81,1.18,3.14,0,1.83-.77,3.11-2.29,3.85l3.11,5.77h-3.33l-2.66-5.03h-2v5.03h-3.03ZM807.71,453.53h-2.15v4.14h2.15c1.38,0,2.07-.69,2.07-2.07s-.69-2.07-2.07-2.07Z"/>
</svg>