<svg xmlns="http://www.w3.org/2000/svg" xmlns:xlink="http://www.w3.org/1999/xlink" id="Layer_1" x="0px" y="0px" viewBox="0 0 394 147" style="enable-background:new 0 0 394 147;" xml:space="preserve"><style type="text/css">	.st0{fill:#1B211F;}</style><g>	<path class="st0" d="M372.8,65.4h-69.1v18.1h67.8c-0.9,12.3-5.8,22.2-14.9,30.2c-9.1,7.8-20.3,11.7-33.7,11.7   c-14.9,0-26.8-4.8-35.6-14.5c-8.9-9.7-13.4-22-13.4-37.1c0-15.3,4.5-27.9,13.4-37.6c8.9-9.7,20.7-14.5,35.6-14.5   c8.9,0,16.6,1.7,23.5,5.2s11.4,8.6,17.1,14.9l13.2-13.2c-6.5-8-14.3-14.3-23.3-18.6c-9.1-4.5-19-6.7-29.6-6.7   c-13.2,0-25.1,3-35.6,9.3C277.6,19,269.3,27.4,263.5,38c-5.8,10.6-8.9,22.5-8.9,35.4s3,24.6,8.9,35.4c5.8,10.8,14,19.2,24.4,25.5   c10.4,6.3,22,9.3,35,9.3c8.9,0,17.5-1.7,25.7-5c8.2-3.2,15.3-7.8,21.2-13.2c5.8-5.6,10.8-12.1,14.5-19.4c3.7-7.3,5.8-15.1,6.3-23.3   L372.8,65.4z"></path>	<polygon class="st0" points="139.8,139 244.1,139 244.1,122 158.1,122 158.1,81.2 241.7,83.3 241.7,65.2 158.1,65.2 158.1,23.5    244.1,23.5 244.1,6.2 139.8,6.2  "></polygon>	<polygon class="st0" points="3.5,27.8 55.8,20.1 55.8,139 74.3,139 74.3,20.1 127.2,27.8 127.2,6.2 3.5,6.2  "></polygon></g></svg>